# xmcd
#
# Track frame offsets:
#	150
#	15504
#	28339
#	42847
#	58770
#	75878
#	89070
#	102389
#	116529
#	133601
#
# Disc length: 1993 seconds
#
# Revision: 1
# Processed by: cddbd v1.5.2PL0 Copyright (c) Steve Scherf et al.
# Submitted via: audiograbber 1.83.01
#
DISCID=7c07c70a
DTITLE=Gem - New
DYEAR=2008
DGENRE=rock
TTITLE0=Look
TTITLE1=Blisters
TTITLE2=Shoes
TTITLE3=She Said Oh Oh Oh, I Said Yeah Yeah Yeah
TTITLE4=Down
TTITLE5=Jupiter
TTITLE6=Gimme
TTITLE7=Cold
TTITLE8=Comfort
TTITLE9=Today
EXTD=
EXTT0=
EXTT1=
EXTT2=
EXTT3=
EXTT4=
EXTT5=
EXTT6=
EXTT7=
EXTT8=
EXTT9=
PLAYORDER=
